<svg height="512pt" viewBox="0 -31 512 512" width="512pt" xmlns="http://www.w3.org/2000/svg"><path d="m367 370h-322c-24.851562 0-45-20.148438-45-45v-210c0-8.285156 6.714844-15 15-15h382c8.285156 0 15 6.714844 15 15v210c0 24.851562-20.148438 45-45 45zm0 0" fill="#e6f0f0"/><path d="m397 100h-191v270h161c24.851562 0 45-20.148438 45-45v-210c0-8.285156-6.714844-15-15-15zm0 0" fill="#cdd7d7"/><path d="m0 115v-70c0-24.8125 20.1875-45 45-45h322c24.8125 0 45 20.1875 45 45v70zm0 0" fill="#5a5a6e"/><path d="m412 45c0-24.8125-20.1875-45-45-45h-161v115h206zm0 0" fill="#46465a"/><path d="m363 65c0 8.285156-6.714844 15-15 15s-15-6.714844-15-15 6.714844-15 15-15 15 6.714844 15 15zm0 0" fill="#68d31e"/><path d="m303 65c0 8.285156-6.714844 15-15 15s-15-6.714844-15-15 6.714844-15 15-15 15 6.714844 15 15zm0 0" fill="#fedc00"/><path d="m243 65c0 8.285156-6.714844 15-15 15s-15-6.714844-15-15 6.714844-15 15-15 15 6.714844 15 15zm0 0" fill="#ff5036"/><path d="m235 190h-160c-8.285156 0-15-6.714844-15-15s6.714844-15 15-15h160c8.285156 0 15 6.714844 15 15s-6.714844 15-15 15zm0 0" fill="#5a5a6e"/><path d="m235 250h-160c-8.285156 0-15-6.714844-15-15s6.714844-15 15-15h160c8.285156 0 15 6.714844 15 15s-6.714844 15-15 15zm0 0" fill="#5a5a6e"/><path d="m235 160h-29v30h29c8.285156 0 15-6.714844 15-15s-6.714844-15-15-15zm0 0" fill="#46465a"/><path d="m235 220h-29v30h29c8.285156 0 15-6.714844 15-15s-6.714844-15-15-15zm0 0" fill="#46465a"/><path d="m387 450c-68.925781 0-125-56.074219-125-125s56.074219-125 125-125 125 56.074219 125 125-56.074219 125-125 125zm0 0" fill="#e62300"/><path d="m437 310h-35v-35c0-8.285156-6.714844-15-15-15s-15 6.714844-15 15v35h-35c-8.285156 0-15 6.714844-15 15s6.714844 15 15 15h35v35c0 8.285156 6.714844 15 15 15s15-6.714844 15-15v-35h35c8.285156 0 15-6.714844 15-15s-6.714844-15-15-15zm0 0" fill="#cdd7d7"/></svg>