<svg height="512pt" viewBox="0 0 512 512" width="512pt" xmlns="http://www.w3.org/2000/svg"><path d="m296.992188 451c-3.453126 0-6.925782-1.1875-9.753907-3.613281l-140-120c-6.289062-5.390625-7.019531-14.859375-1.628906-21.148438 5.394531-6.292969 14.859375-7.019531 21.152344-1.628906l140 120c6.289062 5.394531 7.019531 14.863281 1.625 21.152344-2.964844 3.460937-7.167969 5.238281-11.394531 5.238281zm0 0" fill="#46465a"/><path d="m157.007812 211c-4.230468 0-8.429687-1.777344-11.398437-5.238281-5.390625-6.289063-4.660156-15.757813 1.628906-21.152344l140-120c6.289063-5.390625 15.757813-4.660156 21.148438 1.628906 5.394531 6.289063 4.664062 15.757813-1.625 21.148438l-140 120c-2.828125 2.425781-6.300781 3.613281-9.753907 3.613281zm0 0" fill="#46465a"/><g fill="#feef55"><path d="m497 512h-200c-8.285156 0-15-6.714844-15-15v-160c0-8.285156 6.714844-15 15-15h80c5.683594 0 10.875 3.210938 13.414062 8.292969l15.855469 31.707031h90.730469c8.285156 0 15 6.714844 15 15v120c0 8.285156-6.714844 15-15 15zm0 0"/><path d="m215 331h-200c-8.285156 0-15-6.714844-15-15v-160c0-8.285156 6.714844-15 15-15h80c5.683594 0 10.875 3.210938 13.414062 8.292969l15.855469 31.707031h90.730469c8.285156 0 15 6.714844 15 15v120c0 8.285156-6.714844 15-15 15zm0 0"/><path d="m497 190h-200c-8.285156 0-15-6.714844-15-15v-160c0-8.285156 6.714844-15 15-15h80c5.683594 0 10.875 3.210938 13.414062 8.292969l15.855469 31.707031h90.730469c8.285156 0 15 6.714844 15 15v120c0 8.285156-6.714844 15-15 15zm0 0"/></g><path d="m497 40h-90.730469l-9.269531-18.539062v168.539062h100c8.285156 0 15-6.714844 15-15v-120c0-8.285156-6.714844-15-15-15zm0 0" fill="#fedc00"/><path d="m497 362h-90.730469l-9.269531-18.539062v168.539062h100c8.285156 0 15-6.714844 15-15v-120c0-8.285156-6.714844-15-15-15zm0 0" fill="#fedc00"/><path d="m215 181h-90.730469l-9.269531-18.539062v168.539062h100c8.285156 0 15-6.714844 15-15v-120c0-8.285156-6.714844-15-15-15zm0 0" fill="#fedc00"/></svg>