<svg height="512pt" viewBox="-45 0 512 512" width="512pt" xmlns="http://www.w3.org/2000/svg"><g fill="#5a5a6e"><path d="m195 150c-8.285156 0-15-6.714844-15-15v-60c0-8.285156 6.714844-15 15-15s15 6.714844 15 15v60c0 8.285156-6.714844 15-15 15zm0 0"/><path d="m152.574219 167.574219c-3.839844 0-7.679688-1.464844-10.605469-4.394531l-42.429688-42.425782c-5.855468-5.859375-5.855468-15.355468 0-21.214844 5.859376-5.855468 15.359376-5.855468 21.214844 0l42.425782 42.429688c5.859374 5.855469 5.859374 15.351562 0 21.210938-2.929688 2.929687-6.769532 4.394531-10.605469 4.394531zm0 0"/><path d="m135 210h-60c-8.285156 0-15-6.714844-15-15s6.714844-15 15-15h60c8.285156 0 15 6.714844 15 15s-6.714844 15-15 15zm0 0"/></g><path d="m315 210h-60c-8.285156 0-15-6.714844-15-15s6.714844-15 15-15h60c8.285156 0 15 6.714844 15 15s-6.714844 15-15 15zm0 0" fill="#46465a"/><path d="m237.425781 167.574219c-3.835937 0-7.675781-1.464844-10.605469-4.394531-5.855468-5.855469-5.855468-15.355469 0-21.210938l42.425782-42.429688c5.859375-5.855468 15.355468-5.855468 21.214844 0 5.855468 5.859376 5.855468 15.355469 0 21.214844l-42.425782 42.425782c-2.929687 2.929687-6.769531 4.394531-10.609375 4.394531zm0 0" fill="#46465a"/><path d="m88.933594 133.914062c-11.523438 0-23.046875-4.386718-31.820313-13.160156-8.496093-8.5-13.179687-19.800781-13.179687-31.820312 0-12.019532 4.679687-23.320313 13.179687-31.820313 17.546875-17.542969 46.097657-17.546875 63.640625 0 8.5 8.5 13.183594 19.800781 13.183594 31.820313 0 12.019531-4.683594 23.320312-13.183594 31.820312-8.773437 8.769532-20.296875 13.160156-31.820312 13.160156zm0 0" fill="#78e0ea"/><path d="m45 240c-24.8125 0-45-20.1875-45-45s20.1875-45 45-45 45 20.1875 45 45-20.1875 45-45 45zm0 0" fill="#78e0ea"/><path d="m345 240c-24.8125 0-45-20.1875-45-45s20.1875-45 45-45 45 20.1875 45 45-20.1875 45-45 45zm0 0" fill="#3cccdd"/><path d="m301.066406 133.914062c-11.527344 0-23.046875-4.386718-31.820312-13.160156-17.546875-17.542968-17.546875-46.09375 0-63.640625 17.542968-17.542969 46.09375-17.546875 63.640625 0 8.5 8.5 13.179687 19.800781 13.179687 31.820313 0 12.019531-4.679687 23.320312-13.179687 31.820312-8.773438 8.769532-20.296875 13.160156-31.820313 13.160156zm0 0" fill="#3cccdd"/><path d="m195 60c8.285156 0 15 6.714844 15 15v60c0 8.285156-6.714844 15-15 15zm0 0" fill="#46465a"/><path d="m195 90c-24.8125 0-45-20.1875-45-45s20.1875-45 45-45 45 20.1875 45 45-20.1875 45-45 45zm0 0" fill="#78e0ea"/><path d="m195 0v90c24.8125 0 45-20.1875 45-45s-20.1875-45-45-45zm0 0" fill="#3cccdd"/><path d="m195 270c-41.355469 0-75-33.644531-75-75s33.644531-75 75-75 75 33.644531 75 75-33.644531 75-75 75zm0 0" fill="#ff5036"/><path d="m195 120v150c41.355469 0 75-33.644531 75-75s-33.644531-75-75-75zm0 0" fill="#e62300"/><path d="m390 320c-17.949219 0-32.5 14.550781-32.5 32.5v-20c0-17.949219-14.550781-32.5-32.5-32.5s-32.5 14.550781-32.5 32.5v-10c0-17.949219-14.550781-32.5-32.5-32.5s-32.5 14.550781-32.5 32.5v-95c0-17.949219-14.550781-32.5-32.5-32.5s-32.5 14.550781-32.5 32.5v149.308594l-12.960938-13.144532c-10.5625-10.714843-26.15625-14.953124-40.695312-11.058593-13.664062 3.660156-24.480469 13.867187-28.933594 27.292969-4.453125 13.429687-1.875 28.074218 6.898438 39.175781l68.921875 87.226562c2.84375 3.597657 7.179687 5.699219 11.769531 5.699219h240c8.285156 0 15-6.714844 15-15v-144.5c0-17.949219-14.550781-32.5-32.5-32.5zm0 0" fill="#fbc887"/><path d="m390 320c-17.949219 0-32.5 14.550781-32.5 32.5v-20c0-17.949219-14.550781-32.5-32.5-32.5s-32.5 14.550781-32.5 32.5v179.5h115c8.285156 0 15-6.714844 15-15v-144.5c0-17.949219-14.550781-32.5-32.5-32.5zm0 0" fill="#fab76f"/></svg>