<svg height="512pt" viewBox="0 0 512 512" width="512pt" xmlns="http://www.w3.org/2000/svg"><path d="m347 0h-332c-8.285156 0-15 6.714844-15 15v482c0 8.285156 6.714844 15 15 15h437c8.285156 0 15-6.714844 15-15v-377zm0 0" fill="#e6f0f0"/><path d="m347 0h-113.5v512h218.5c8.285156 0 15-6.714844 15-15v-377zm0 0" fill="#cdd7d7"/><path d="m360 235.566406c-16.097656 0-31.3125-7.53125-41.746094-20.671875-4.777344-6.015625-11.261718-9.328125-18.253906-9.328125s-13.476562 3.316406-18.253906 9.328125c-5.148438 6.488281-14.585938 7.570313-21.074219 2.421875-6.488281-5.152344-7.570313-14.589844-2.417969-21.078125 10.433594-13.136719 25.648438-20.671875 41.746094-20.671875s31.3125 7.535156 41.746094 20.671875c4.777344 6.019531 11.261718 9.328125 18.253906 9.328125s13.476562-3.3125 18.253906-9.328125c5.152344-6.484375 14.585938-7.566406 21.074219-2.417969 6.488281 5.152344 7.570313 14.589844 2.417969 21.074219-10.433594 13.140625-25.648438 20.671875-41.746094 20.671875zm0 0" fill="#46465a"/><path d="m145 335c-44.113281 0-80-35.886719-80-80v-100c0-44.113281 35.886719-80 80-80s80 35.886719 80 80v100c0 44.113281-35.886719 80-80 80zm0-230c-27.570312 0-50 22.429688-50 50v100c0 27.570312 22.429688 50 50 50s50-22.429688 50-50v-100c0-27.570312-22.429688-50-50-50zm0 0" fill="#5a5a6e"/><path d="m347 0v105c0 8.285156 6.714844 15 15 15h105zm0 0" fill="#46465a"/><path d="m310.578125 389.21875c-1.144531 0-2.304687-.132812-3.445313-.402344-5.058593-1.195312-9.140624-4.921875-10.785156-9.855468l-31.820312-95.457032c-1.796875-5.390625-.390625-11.332031 3.625-15.351562 4.019531-4.019532 9.960937-5.421875 15.351562-3.625l95.457032 31.820312c4.933593 1.644532 8.660156 5.726563 9.855468 10.785156 1.195313 5.058594-.316406 10.378907-3.992187 14.054688l-63.636719 63.636719c-2.847656 2.847656-6.675781 4.394531-10.609375 4.394531zm0 0" fill="#fbc887"/><path d="m268.152344 268.152344c-4.019532 4.019531-5.421875 9.960937-3.625 15.351562l31.820312 95.457032c1.644532 4.933593 5.726563 8.660156 10.785156 9.855468 1.140626.269532 2.296876.402344 3.445313.402344 3.933594 0 7.761719-1.550781 10.605469-4.394531l31.820312-31.820313zm0 0" fill="#fab76f"/><path d="m494.425781 409.574219-109.601562-109.601563-84.851563 84.851563 109.601563 109.601562c11.332031 11.332031 26.398437 17.574219 42.425781 17.574219s31.09375-6.242188 42.425781-17.574219 17.574219-26.398437 17.574219-42.425781-6.242188-31.09375-17.574219-42.425781zm0 0" fill="#ff5036"/><path d="m299.972656 384.824219 109.601563 109.601562c11.332031 11.332031 26.398437 17.574219 42.425781 17.574219s31.09375-6.242188 42.425781-17.574219l-152.027343-152.027343zm0 0" fill="#e62300"/></svg>