<?xml version="1.0" encoding="UTF-8" standalone="no"?>
<!-- Generator: Gravit.io -->
<svg xmlns="http://www.w3.org/2000/svg" xmlns:xlink="http://www.w3.org/1999/xlink" style="isolation:isolate" viewBox="0 0 1440 718" width="1440pt" height="718pt"><defs><clipPath id="_clipPath_oA95yMdcosoRS8Lj9OuVfl1CoD2MNifR"><rect width="1440" height="718"/></clipPath></defs><g clip-path="url(#_clipPath_oA95yMdcosoRS8Lj9OuVfl1CoD2MNifR)"><defs><linearGradient id="_lgradient_21" x1="0" y1="0.5" x2="0.7399962436200819" y2="1.1726110015664095"><stop offset="0%" style="stop-color:#7DCBDF"/><stop offset="100%" style="stop-color:rgba(255,255,255,-0.14904227326523523)"/></linearGradient></defs><path d="M 976.991 549.121 L 999.619 571.749 C 1000.79 572.919 1000.79 574.821 999.619 575.991 L 976.991 598.619 C 975.821 599.79 973.919 599.79 972.749 598.619 L 950.121 575.991 C 948.95 574.821 948.95 572.919 950.121 571.749 L 972.749 549.121 C 973.919 547.95 975.821 547.95 976.991 549.121 Z" style="stroke:none;fill:url(#_lgradient_21);stroke-miterlimit:10;"/><defs><linearGradient id="_lgradient_22" x1="0" y1="0.5" x2="0.7399962436200819" y2="1.1726110015664095"><stop offset="0%" style="stop-color:#7DCBDF"/><stop offset="100%" style="stop-color:rgba(255,255,255,-0.14904227326523523)"/></linearGradient></defs><path d="M 516.728 338.229 L 527.334 348.836 C 527.725 349.226 527.725 349.86 527.334 350.25 L 516.728 360.856 C 516.338 361.247 515.704 361.247 515.314 360.856 L 504.707 350.25 C 504.317 349.86 504.317 349.226 504.707 348.836 L 515.314 338.229 C 515.704 337.839 516.338 337.839 516.728 338.229 Z" style="stroke:none;fill:url(#_lgradient_22);stroke-miterlimit:10;"/><g opacity="0.543"><mask id="_mask_4eAkfx9ufvuXbWf2dXLsCUtJQQectRzf" x="-200%" y="-200%" width="400%" height="400%"><rect x="-200%" y="-200%" width="400%" height="400%" style="fill:white;"/><path d=" M 1337.683 273.743 L 1336.04 301.117 C 1335.999 301.808 1335.602 302.429 1334.991 302.758 C 1334.381 303.086 1333.644 303.075 1333.044 302.728 L 1311.802 290.464 C 1311.202 290.118 1310.825 289.485 1310.804 288.793 C 1310.783 288.1 1311.122 287.446 1311.701 287.064 L 1334.586 271.954 C 1335.218 271.537 1336.031 271.513 1336.687 271.892 C 1337.343 272.27 1337.728 272.987 1337.683 273.743 Z " fill-rule="evenodd" fill="black" stroke="none"/></mask><linearGradient id="_lgradient_23" x1="0" y1="0.5" x2="0.8199017413354338" y2="-0.07250426597111348"><stop offset="0%" stop-opacity="0.8530321596363782" style="stop-color:rgb(209,242,255)"/><stop offset="60.702714976747664%" stop-opacity="1" style="stop-color:rgb(201,240,255)"/></linearGradient><path d=" M 1337.683 273.743 L 1336.04 301.117 C 1335.999 301.808 1335.602 302.429 1334.991 302.758 C 1334.381 303.086 1333.644 303.075 1333.044 302.728 L 1311.802 290.464 C 1311.202 290.118 1310.825 289.485 1310.804 288.793 C 1310.783 288.1 1311.122 287.446 1311.701 287.064 L 1334.586 271.954 C 1335.218 271.537 1336.031 271.513 1336.687 271.892 C 1337.343 272.27 1337.728 272.987 1337.683 273.743 Z " fill-rule="evenodd" fill="none" mask="url(#_mask_4eAkfx9ufvuXbWf2dXLsCUtJQQectRzf)" vector-effect="non-scaling-stroke" stroke-width="20" stroke="url(#_lgradient_23)" stroke-linejoin="miter" stroke-linecap="butt" stroke-miterlimit="4"/><path d=" M 1337.683 273.743 L 1336.04 301.117 C 1335.999 301.808 1335.602 302.429 1334.991 302.758 C 1334.381 303.086 1333.644 303.075 1333.044 302.728 L 1311.802 290.464 C 1311.202 290.118 1310.825 289.485 1310.804 288.793 C 1310.783 288.1 1311.122 287.446 1311.701 287.064 L 1334.586 271.954 C 1335.218 271.537 1336.031 271.513 1336.687 271.892 C 1337.343 272.27 1337.728 272.987 1337.683 273.743 Z " fill-rule="evenodd" fill="none"/></g><g opacity="0.543"><mask id="_mask_gxUIyizMfa37iLbKfgg44wGTgjc28CdW" x="-200%" y="-200%" width="400%" height="400%"><rect x="-200%" y="-200%" width="400%" height="400%" style="fill:white;"/><path d=" M 852.851 157.232 L 850.384 198.324 C 850.281 200.054 849.288 201.606 847.763 202.428 C 846.237 203.249 844.394 203.221 842.894 202.355 L 811.006 183.945 C 809.506 183.078 808.561 181.497 808.509 179.764 C 808.457 178.032 809.306 176.397 810.752 175.442 L 845.105 152.76 C 846.686 151.717 848.72 151.656 850.36 152.603 C 852 153.55 852.964 155.342 852.851 157.232 L 852.851 157.232 Z " fill-rule="evenodd" fill="black" stroke="none"/></mask><linearGradient id="_lgradient_24" x1="0" y1="0.5" x2="0.8564257964991889" y2="-0.016270137709639143"><stop offset="0%" stop-opacity="0.6214501931977305" style="stop-color:rgb(221,246,255)"/><stop offset="61.67749857210041%" stop-opacity="1" style="stop-color:rgb(201,240,255)"/></linearGradient><path d=" M 852.851 157.232 L 850.384 198.324 C 850.281 200.054 849.288 201.606 847.763 202.428 C 846.237 203.249 844.394 203.221 842.894 202.355 L 811.006 183.945 C 809.506 183.078 808.561 181.497 808.509 179.764 C 808.457 178.032 809.306 176.397 810.752 175.442 L 845.105 152.76 C 846.686 151.717 848.72 151.656 850.36 152.603 C 852 153.55 852.964 155.342 852.851 157.232 L 852.851 157.232 Z " fill-rule="evenodd" fill="none" mask="url(#_mask_gxUIyizMfa37iLbKfgg44wGTgjc28CdW)" vector-effect="non-scaling-stroke" stroke-width="20" stroke="url(#_lgradient_24)" stroke-linejoin="miter" stroke-linecap="butt" stroke-miterlimit="4"/><path d=" M 852.851 157.232 L 850.384 198.324 C 850.281 200.054 849.288 201.606 847.763 202.428 C 846.237 203.249 844.394 203.221 842.894 202.355 L 811.006 183.945 C 809.506 183.078 808.561 181.497 808.509 179.764 C 808.457 178.032 809.306 176.397 810.752 175.442 L 845.105 152.76 C 846.686 151.717 848.72 151.656 850.36 152.603 C 852 153.55 852.964 155.342 852.851 157.232 L 852.851 157.232 Z " fill-rule="evenodd" fill="none"/></g><linearGradient id="_lgradient_25" x1="0" y1="0.5" x2="0.7399962436200819" y2="1.1726110015664095" gradientTransform="matrix(437,0,0,428,0,-20)" gradientUnits="userSpaceOnUse"><stop offset="10%" stop-opacity="1" style="stop-color:rgb(125,203,223)"/><stop offset="100%" stop-opacity="-0.14904227326523523" style="stop-color:rgb(255,255,255)"/></linearGradient><path d=" M 0 408 C 38.952 315.377 95.85 282.046 170.692 308.008 C 282.957 346.951 322.832 399.614 383.282 308.008 C 398.954 284.257 393.147 233.498 354.003 231.482 C 314.859 229.466 344.752 185.166 412.147 176.475 C 479.542 167.784 394.051 106.413 342.752 88.577 C 289.477 70.055 357.911 21.295 363.196 2.674 C 371.776 -27.558 250.711 -27.558 0 2.674 L 0 408 L 0 408 Z " fill-rule="evenodd" fill="url(#_lgradient_25)"/><linearGradient id="_lgradient_26" x1="0" y1="0.5" x2="0.7399962436200819" y2="1.1726110015664095" gradientTransform="matrix(715,0,0,720,725,-2)" gradientUnits="userSpaceOnUse"><stop offset="10.869565217391305%" stop-opacity="1" style="stop-color:rgb(125,203,223)"/><stop offset="100%" stop-opacity="-0.14904227326523523" style="stop-color:rgb(255,255,255)"/></linearGradient><path d=" M 1440 718 C 1352.502 716.975 1287.984 696.817 1246.445 657.526 C 1184.137 598.591 1184.653 471.139 1051.809 478.107 C 918.966 485.075 777.007 456.569 827.409 376.286 C 877.811 296.002 995.536 305.954 1023.673 175.094 C 1051.809 44.234 821.437 202.259 783.387 115.246 C 768.529 81.266 803.796 76.685 749.114 38.456 C 730.961 25.766 722.183 7.376 725.802 0.228 C 727.546 -3.217 733.726 1.806 740.172 0.228 C 760.638 -4.785 803.932 0.228 847.813 0.228 L 1440 0.228 L 1440 718 Z " fill-rule="evenodd" fill="url(#_lgradient_26)"/><linearGradient id="_lgradient_27" x1="0" y1="0.5" x2="0.7399962436200819" y2="1.1726110015664095" gradientTransform="matrix(112,0,0,44,510,592)" gradientUnits="userSpaceOnUse"><stop offset="0%" stop-opacity="1" style="stop-color:rgb(125,203,223)"/><stop offset="100%" stop-opacity="-0.14904227326523523" style="stop-color:rgb(255,255,255)"/></linearGradient><path d=" M 520.396 592.23 C 529.096 590.41 531.805 600.008 547.671 600.008 C 563.537 600.008 577.646 590.943 597.281 598.936 C 616.917 606.93 632.804 631.146 612.687 626.477 C 600.805 623.719 586.109 615.31 565.871 631.319 C 545.632 647.327 533.522 616.759 518.36 621.45 C 503.197 626.142 511.625 594.064 520.396 592.23 L 520.396 592.23 Z " fill-rule="evenodd" fill="url(#_lgradient_27)"/></g></svg>